<?xml version="1.0" encoding="UTF-8" standalone="no"?>
<svg
   id="logo"
   viewBox="0 0 1361.427 675.11051"
   version="1.1"
   sodipodi:docname="logo-meemoo_en.svg"
   inkscape:version="1.2.1 (9c6d41e4, 2022-07-14)"
   width="1361.427"
   height="675.11053"
   xmlns:inkscape="http://www.inkscape.org/namespaces/inkscape"
   xmlns:sodipodi="http://sodipodi.sourceforge.net/DTD/sodipodi-0.dtd"
   xmlns="http://www.w3.org/2000/svg"
   xmlns:svg="http://www.w3.org/2000/svg">
  <sodipodi:namedview
     id="namedview1461"
     pagecolor="#ffffff"
     bordercolor="#000000"
     borderopacity="0.25"
     inkscape:showpageshadow="2"
     inkscape:pageopacity="0.0"
     inkscape:pagecheckerboard="0"
     inkscape:deskcolor="#d1d1d1"
     showgrid="false"
     inkscape:zoom="0.2897245"
     inkscape:cx="693.76253"
     inkscape:cy="426.26703"
     inkscape:window-width="1311"
     inkscape:window-height="769"
     inkscape:window-x="10"
     inkscape:window-y="510"
     inkscape:window-maximized="0"
     inkscape:current-layer="logo" />
  <defs
     id="defs1453">
    <style
       id="style1451">.cls-1{fill:#00c8aa;}</style>
  </defs>
  <title
     id="title1455">meemoo-EN-logo_lockup-pos-rgb</title>
  <path
     id="meemoo"
     d="M 274.44715,452.38083 V 560.23678 H 228.99707 V 467.0639 c 0,-24.47181 -12.41124,-37.93224 -33.03835,-37.93224 -19.57837,0 -35.83572,12.76096 -35.83572,38.28289 v 92.82223 H 114.49853 V 467.0639 c 0,-24.47181 -12.23636,-37.93224 -33.038346,-37.93224 -19.578375,0 -35.835707,12.76096 -35.835707,38.28289 v 92.82223 H 0 v -169.388 h 44.400853 v 19.92812 c 12.061571,-18.00599 30.591159,-24.47367 49.820276,-24.47367 24.472711,0 44.575751,11.01324 55.938171,29.01922 13.1103,-21.50142 35.31066,-29.01922 57.51109,-29.01922 39.85638,0 66.77676,26.74645 66.77676,66.0776 z m 193.4753,22.90035 a 130.76102,130.76102 0 0 1 -0.87386,15.38253 H 346.95627 c 4.89436,24.47366 22.02556,35.13625 43.52704,35.13625 14.68354,0 30.59116,-5.94448 42.82753,-16.25646 l 26.7455,29.36619 c -19.22864,17.65532 -43.70182,25.69632 -72.19555,25.69632 -51.91726,0 -87.92785,-35.31065 -87.92785,-88.62543 0,-53.31666 34.96139,-89.67744 85.65553,-89.67744 48.77105,9e-5 82.15912,36.18646 82.33398,88.97804 z M 347.13113,459.54793 h 74.99202 c -4.19537,-21.67582 -17.30607,-33.91173 -36.88445,-33.91173 -21.50096,4e-5 -34.08705,12.9354 -38.10757,33.91173 z m 305.01408,15.73322 a 130.86235,130.86235 0 0 1 -0.87386,15.38252 H 531.17903 c 4.89437,24.47367 22.02556,35.13625 43.52703,35.13625 14.68356,0 30.59116,-5.94448 42.82755,-16.25645 l 26.74551,29.36618 c -19.22865,17.65532 -43.70182,25.69632 -72.19511,25.69632 -51.91771,0 -87.9283,-35.31065 -87.9283,-88.62543 0,-53.31666 34.9614,-89.67744 85.65553,-89.67744 48.77104,1.3e-4 82.15911,36.1865 82.33397,88.97808 z M 531.3539,459.54793 h 74.99201 c -4.19537,-21.67582 -17.30607,-33.91173 -36.88444,-33.91173 -21.50091,4e-5 -34.08707,12.9354 -38.10757,33.91173 z m 421.95975,-7.16714 V 560.23678 H 907.86361 V 467.0639 c 0,-24.47181 -12.41123,-37.93224 -33.03835,-37.93224 -19.57836,0 -35.83571,12.76096 -35.83571,38.28289 v 92.82223 H 793.36507 V 467.0639 c 0,-24.47181 -12.23636,-37.93224 -33.03834,-37.93224 -19.57838,0 -35.8357,12.76096 -35.8357,38.28289 v 92.82223 h -45.62448 v -169.388 h 44.40085 v 19.92812 c 12.06151,-18.00599 30.59116,-24.47367 49.82027,-24.47367 24.47272,0 44.57576,11.01324 55.93818,29.01922 13.1103,-21.50142 35.31065,-29.01922 57.51109,-29.01922 39.85632,0 66.77671,26.74645 66.77671,66.0776 z m 208.68345,23.07475 c 0,51.04388 -38.9819,89.15051 -91.7735,89.15051 -52.6167,0 -91.4242,-38.10663 -91.4242,-89.15051 0,-51.04387 38.8075,-89.15236 91.4242,-89.15236 52.7916,5e-5 91.7735,38.10854 91.7735,89.1524 z m -136.6989,0 c 0,27.44409 19.2286,46.6727 44.9254,46.6727 25.6968,0 45.1004,-19.22865 45.1004,-46.6727 0,-27.44406 -19.4036,-46.67455 -45.1004,-46.67455 -25.6968,0 -44.9254,19.23054 -44.9254,46.67459 z m 336.1288,0 c 0,51.04388 -38.9818,89.15051 -91.7734,89.15051 -52.6167,0 -91.4242,-38.10663 -91.4242,-89.15051 0,-51.04387 38.8075,-89.15236 91.4242,-89.15236 52.7916,5e-5 91.7734,38.10854 91.7734,89.1524 z m -136.6989,0 c 0,27.44409 19.2287,46.6727 44.9255,46.6727 25.6969,0 45.1004,-19.22865 45.1004,-46.6727 0,-27.44406 -19.4035,-46.67455 -45.1004,-46.67455 -25.6968,0 -44.9255,19.23054 -44.9255,46.67459 z"
     style="stroke-width:1.26658" />
  <path
     id="symbol"
     class="cls-1"
     d="m 274.99571,145.43566 a 0.10041387,0.10041387 0 0 1 0.10842,0.10843 V 268.22626 H 420.63542 V 6.8776412 H 275.1041 V 129.55954 c 0,0 0,0.0979 -0.13618,0.0979 a 0.09201649,0.09201649 0 0 1 -0.0922,-0.0979 137.5518,137.5518 0 1 0 0,15.98452 0.10862126,0.10862126 0 0 1 0.11995,-0.10842 z"
     style="stroke-width:1.26658" />
  <path
     id="flemish_institute_for_archives"
     data-name="flemish institute for archives"
     d="m 10.410378,630.49263 v 12.57666 h 22.759966 v 9.46096 H 10.410378 v 21.69562 H 1.14e-4 v -53.19419 h 34.765807 v 9.46095 z m 65.991646,34.08243 v 9.65081 H 41.674555 V 621.03168 H 52.08482 v 43.54338 z m 40.352826,0.18986 v 9.46095 H 81.457181 v -53.19419 h 35.183889 v 9.46095 H 91.867445 v 12.15863 h 23.481685 v 9.46094 H 91.867445 v 12.65274 z m 62.22291,9.46095 h -10.33482 v -39.13573 l -11.09488,30.58698 h -10.56239 l -11.09489,-30.43483 v 38.98358 h -10.37253 v -53.19419 h 14.66577 l 12.08311,32.33471 12.08252,-32.33471 h 14.62806 z m 20.26082,0 h -10.41026 v -53.19419 h 10.41026 z m 41.02075,-39.97125 a 21.8893,21.8893 0 0 0 -12.9564,-4.36929 c -5.05329,0 -8.66315,2.24124 -8.66315,6.07929 0,3.57089 3.6853,5.09103 9.46095,6.42068 l 3.15344,0.72235 c 9.27109,2.12744 15.04612,6.76329 15.04612,15.1599 0,11.20868 -9.1944,16.79446 -20.02335,16.79446 -8.01688,0 -15.38811,-2.69828 -20.28991,-7.21909 l 6.00325,-7.82764 a 21.804337,21.804337 0 0 0 14.28666,5.39591 c 5.12937,0 8.96681,-2.20412 8.96681,-6.15536 0,-3.49606 -3.03965,-5.09162 -9.11895,-6.4213 l -3.45774,-0.76007 c -9.76461,-2.12807 -14.97005,-7.2191 -14.97005,-15.65405 0,-9.80294 8.1313,-16.22425 19.33996,-16.22425 a 30.527869,30.527869 0 0 1 18.69371,6.04155 z m 55.69509,-13.22294 v 53.19419 h -10.37315 v -22.03762 h -21.42965 v 22.03762 h -10.41027 v -53.19419 h 10.41027 v 21.54411 h 21.42969 v -21.54411 z m 36.78127,53.19419 h -10.41027 v -53.19419 h 10.41027 z m 52.90538,0 h -9.95439 l -22.9492,-34.57594 v 34.57594 h -10.33482 v -53.19419 h 9.95447 l 22.98755,34.65262 v -34.65262 h 10.29648 z m 40.99971,-39.97125 a 21.889223,21.889223 0 0 0 -12.95639,-4.36929 c -5.05331,0 -8.66316,2.24124 -8.66316,6.07929 0,3.57089 3.6853,5.09103 9.46095,6.42068 l 3.15344,0.72235 c 9.27109,2.12744 15.04612,6.76329 15.04612,15.1599 0,11.20868 -9.1944,16.79446 -20.02335,16.79446 -8.01689,0 -15.3881,-2.69828 -20.2899,-7.21909 l 6.00324,-7.82764 a 21.804312,21.804312 0 0 0 14.28666,5.39591 c 5.12938,0 8.96681,-2.20412 8.96681,-6.15536 0,-3.49606 -3.03964,-5.09162 -9.11895,-6.4213 l -3.45775,-0.76007 c -9.7646,-2.12807 -14.97003,-7.2191 -14.97003,-15.65405 0,-9.80294 8.13129,-16.22425 19.33996,-16.22425 a 30.527869,30.527869 0 0 1 18.69371,6.04155 z m 49.37284,-3.5715 h -14.55251 v 43.54275 h -10.41088 v -43.54275 h -14.55198 v -9.65144 h 39.51546 z m 15.45675,43.54275 H 481.0602 v -53.19419 h 10.41026 z m 44.42482,-43.54275 h -14.55267 v 43.54275 h -10.41086 v -43.54275 h -14.55199 v -9.65144 h 39.51552 z m 46.2565,24.05127 c 0,12.9941 -7.97916,20.32762 -20.70735,20.32762 -12.7288,0 -20.74569,-7.33346 -20.74569,-20.32762 v -33.70271 h 10.41089 v 33.17084 c 0,7.40895 4.17944,10.82833 10.3348,10.82833 6.15537,0 10.33482,-3.41938 10.33482,-10.82833 v -33.17084 h 10.37253 z m 44.34241,-24.05127 h -14.55263 v 43.54275 h -10.41025 v -43.54275 h -14.55263 v -9.65144 h 39.51546 z m 40.35159,34.0818 v 9.46095 h -35.29775 v -53.19419 h 35.18388 v 9.46095 H 641.9582 v 12.15863 h 23.48169 v 9.46094 H 641.9582 v 12.65274 z m 35.83134,-34.27229 v 12.57666 h 22.75934 v 9.46096 h -22.75936 v 21.69562 h -10.41026 v -53.19419 h 34.7658 v 9.46095 z m 77.81628,17.13645 c 0,16.52791 -9.95508,27.47069 -24.6592,27.47069 -14.70473,0 -24.65919,-10.94274 -24.65919,-27.47069 0,-16.52795 9.95446,-27.47069 24.65919,-27.47069 14.7041,5e-5 24.65917,10.94279 24.65917,27.47069 z m -38.52779,0 c 0,10.9044 5.69958,17.40177 13.86859,17.40177 8.16901,0 13.86798,-6.49737 13.86798,-17.40177 0,-10.90501 -5.69895,-17.40238 -13.86798,-17.40238 -8.16902,0 -13.86861,6.49737 -13.86861,17.40238 z m 59.02482,5.66124 h -2.62221 v 20.93555 h -10.41026 v -53.19419 h 19.83349 c 11.89267,0 18.61763,6.15536 18.61763,16.41477 0,8.39662 -5.2809,14.17226 -14.24834,15.54026 l 14.6664,21.23915 h -12.23466 z m -2.62221,-8.85302 h 9.30946 c 5.05331,0 8.09296,-2.27958 8.09296,-6.9909 0,-4.67357 -3.11577,-6.8777 -8.09296,-6.8777 h -9.30942 z m 82.41441,17.74376 h -19.56752 l -3.87578,12.04481 h -10.79061 l 18.39005,-53.19419 h 12.31074 l 18.38935,53.19419 H 884.6583 Z m -3.07736,-9.46095 -6.72558,-20.82119 -6.68724,20.82119 z m 35.83134,0.57021 h -2.62221 v 20.93555 h -10.41026 v -53.19419 h 19.83349 c 11.89267,0 18.61762,6.15536 18.61762,16.41477 0,8.39662 -5.2815,14.17226 -14.24831,15.54026 l 14.66639,21.23915 h -12.23467 z m -2.62221,-8.85302 h 9.30944 c 5.05331,0 8.09295,-2.27958 8.09295,-6.9909 0,-4.67357 -3.11577,-6.8777 -8.09295,-6.8777 h -9.30944 z m 77.56582,-12.2724 -8.96681,4.90117 a 12.568199,12.568199 0 0 0 -11.39854,-6.83937 c -7.97915,0 -13.71645,6.49737 -13.71645,17.40238 0.0378,11.28475 6.04154,17.40177 13.75418,17.40177 a 12.857092,12.857092 0 0 0 11.47522,-6.80103 l 8.58647,5.43303 a 22.113255,22.113255 0 0 1 -20.06169,11.43689 c -14.59032,0 -24.54479,-10.82895 -24.54479,-27.4707 0,-16.64231 9.95447,-27.47069 24.54479,-27.47069 9.00523,9e-5 16.60467,4.44546 20.32769,12.00655 z m 48.25657,-11.13317 v 53.19419 h -10.3731 v -22.03767 h -21.4297 v 22.03762 h -10.41026 v -53.19419 h 10.41026 v 21.54411 h 21.4297 v -21.54411 z m 20.215,53.19419 h -10.4102 v -53.19424 h 10.4102 z m 53.1033,-53.19419 -17.9719,53.19419 h -12.463 l -17.9718,-53.19419 h 11.0187 l 13.2607,41.87173 13.3361,-41.87173 z m 40.1618,43.73324 v 9.46095 h -35.2977 v -53.19424 h 35.184 v 9.46095 h -24.7737 v 12.15863 h 23.4818 v 9.46094 h -23.4818 v 12.65274 z m 39.722,-30.5103 a 21.889248,21.889248 0 0 0 -12.9564,-4.36929 c -5.0533,0 -8.6632,2.24124 -8.6632,6.07929 0,3.5709 3.6854,5.09103 9.461,6.42068 l 3.1534,0.72235 c 9.2711,2.12744 15.0461,6.7633 15.0461,15.1599 0,11.20868 -9.1944,16.79446 -20.0233,16.79446 -8.0169,0 -15.3881,-2.69828 -20.2899,-7.21909 l 6.0032,-7.82764 a 21.80435,21.80435 0 0 0 14.2867,5.39591 c 5.1294,0 8.9668,-2.20412 8.9668,-6.15536 0,-3.49606 -3.0396,-5.09162 -9.1189,-6.4213 l -3.4578,-0.76007 c -9.7646,-2.12807 -14.97,-7.2191 -14.97,-15.65405 0,-9.80294 8.1312,-16.22425 19.34,-16.22425 a 30.527831,30.527831 0 0 1 18.6936,6.04155 z"
     style="stroke-width:1.26658" />
</svg>
