<svg width="143" height="29" viewBox="0 0 143 29" fill="none" xmlns="http://www.w3.org/2000/svg">
<path d="M23.7702 11.5844H5.93188V17.3896H23.7702V11.5844Z" fill="#8AC1CE"/>
<path d="M23.7096 23.1948H5.93188V29.0001H23.7096V23.1948Z" fill="#8AC1CE"/>
<path d="M23.7096 0H5.93237V5.80523H23.7096V0Z" fill="#8AC1CE"/>
<path d="M29.6421 5.77954H23.7097V29H29.6421V5.77954Z" fill="#36424D"/>
<path d="M5.93239 17.3892H0V23.1944H5.93239V17.3892Z" fill="#36424D"/>
<path d="M35.6167 5.83618H38.1941V10.1051H43.2005V5.83618H45.7784V17.2841H43.2005V12.3363H38.1941V17.2841H35.6167V5.83618Z" fill="#36424D"/>
<path d="M48.2566 5.83618H56.2043V8.16482H50.834V10.299H55.9065V12.6273H50.834V14.9559H56.5017V17.2841H48.2566V5.83618Z" fill="#36424D"/>
<path d="M60.8307 8.06739H57.4929V5.83618H66.7459V8.06739H63.4081V17.2841H60.8307V8.06739Z" fill="#36424D"/>
<path d="M77.7827 9.16706L76.3621 12.7242H79.2201L77.7827 9.16706ZM76.7916 5.83618H78.9232L84.012 17.2841H81.1037L80.0958 14.8585H75.5524L74.5776 17.2841H71.7354L76.7916 5.83618Z" fill="#36424D"/>
<path d="M87.763 10.5737H89.2832C89.5144 10.5737 89.7593 10.5657 90.0186 10.5493C90.277 10.533 90.5115 10.4847 90.721 10.4041C90.9297 10.323 91.103 10.1964 91.2415 10.0237C91.3786 9.85182 91.4479 9.60912 91.4479 9.29645C91.4479 9.00504 91.3872 8.77341 91.2659 8.60069C91.1446 8.42885 90.9903 8.29644 90.8034 8.20476C90.6156 8.11309 90.401 8.05108 90.1585 8.01919C89.9168 7.98642 89.6796 7.97004 89.4479 7.97004H87.763V10.5737ZM85.1855 5.83582H89.7131C90.3074 5.83582 90.8717 5.89293 91.4062 6.00587C91.9403 6.1188 92.4082 6.30792 92.811 6.57187C93.2125 6.83583 93.5324 7.19146 93.7691 7.63921C94.0063 8.08651 94.1244 8.64409 94.1244 9.31239C94.1244 10.1211 93.9099 10.808 93.4804 11.374C93.0509 11.94 92.4227 12.2983 91.5968 12.4493L94.5706 17.2837H91.4804L89.0352 12.7079H87.763V17.2837H85.1855V5.83582Z" fill="#36424D"/>
<path d="M103.543 8.81106C103.289 8.5099 102.978 8.27739 102.609 8.11574C102.24 7.95453 101.813 7.87349 101.328 7.87349C100.844 7.87349 100.395 7.96516 99.9816 8.14807C99.5689 8.33142 99.2109 8.58785 98.9072 8.91602C98.6049 9.24508 98.3682 9.63569 98.1971 10.0883C98.0265 10.5414 97.9409 11.0316 97.9409 11.56C97.9409 12.099 98.0265 12.5923 98.1971 13.0392C98.3682 13.4869 98.6017 13.8749 98.8995 14.2035C99.1969 14.5326 99.5462 14.7881 99.9486 14.9715C100.35 15.1548 100.783 15.2465 101.246 15.2465C101.774 15.2465 102.242 15.1389 102.65 14.9232C103.057 14.7075 103.394 14.4059 103.658 14.0175L105.806 15.5862C105.311 16.2651 104.683 16.7664 103.922 17.0897C103.163 17.413 102.38 17.5751 101.576 17.5751C100.662 17.5751 99.8192 17.4347 99.048 17.1544C98.2772 16.8745 97.6106 16.4728 97.0489 15.9498C96.4873 15.4272 96.0492 14.7939 95.7351 14.0503C95.4215 13.3062 95.2644 12.4763 95.2644 11.56C95.2644 10.6437 95.4215 9.81328 95.7351 9.07014C96.0492 8.3261 96.4873 7.69279 97.0489 7.17019C97.6106 6.64715 98.2772 6.24592 99.048 5.96558C99.8192 5.68524 100.662 5.54529 101.576 5.54529C101.906 5.54529 102.251 5.57495 102.609 5.63386C102.967 5.6932 103.319 5.78754 103.667 5.91686C104.013 6.04618 104.346 6.2189 104.666 6.43414C104.986 6.65026 105.272 6.91422 105.525 7.22689L103.543 8.81106Z" fill="#36424D"/>
<path d="M107.211 5.83618H109.789V10.1051H114.795V5.83618H117.373V17.2841H114.795V12.3363H109.789V17.2841H107.211V5.83618Z" fill="#36424D"/>
<path d="M122.297 5.83582H119.719V17.2837H122.297V5.83582Z" fill="#36424D"/>
<path d="M124.742 5.83618H132.689V8.16482H127.319V10.299H132.392V12.6273H127.319V14.9559H132.987V17.2841H124.742V5.83618Z" fill="#36424D"/>
<path d="M135.151 5.83618H143V8.16482H137.729V10.493H142.604V12.8212H137.729V17.2841H135.151V5.83618Z" fill="#36424D"/>
<path d="M36.8253 24.7843C36.8253 25.1537 36.8837 25.4916 37.0005 25.798C37.1177 26.1045 37.2856 26.3707 37.5046 26.5957C37.7232 26.8207 37.9857 26.9965 38.2912 27.1218C38.5967 27.2476 38.9384 27.31 39.3158 27.31C39.6933 27.31 40.035 27.2476 40.34 27.1218C40.646 26.9965 40.908 26.8207 41.1271 26.5957C41.3456 26.3707 41.5135 26.1045 41.6308 25.798C41.748 25.4916 41.8064 25.1537 41.8064 24.7843C41.8064 24.4225 41.748 24.0863 41.6308 23.7763C41.5135 23.4658 41.3456 23.1984 41.1271 22.9734C40.908 22.748 40.646 22.5726 40.34 22.4468C40.035 22.3215 39.6933 22.2586 39.3158 22.2586C38.9384 22.2586 38.5967 22.3215 38.2912 22.4468C37.9857 22.5726 37.7232 22.748 37.5046 22.9734C37.2856 23.1984 37.1177 23.4658 37.0005 23.7763C36.8837 24.0863 36.8253 24.4225 36.8253 24.7843ZM34.9915 24.7843C34.9915 24.1567 35.0987 23.5881 35.3137 23.0783C35.5291 22.5686 35.8292 22.135 36.2139 21.7767C36.599 21.4189 37.0552 21.1434 37.5838 20.9512C38.112 20.7594 38.6895 20.6633 39.3158 20.6633C39.9422 20.6633 40.5197 20.7594 41.0478 20.9512C41.576 21.1434 42.0327 21.4189 42.4178 21.7767C42.8025 22.135 43.1025 22.5686 43.3175 23.0783C43.533 23.5881 43.6402 24.1567 43.6402 24.7843C43.6402 25.4123 43.533 25.9805 43.3175 26.4903C43.1025 27 42.8025 27.434 42.4178 27.7919C42.0327 28.1502 41.576 28.4252 41.0478 28.6174C40.5197 28.8092 39.9422 28.9053 39.3158 28.9053C38.6895 28.9053 38.112 28.8092 37.5838 28.6174C37.0552 28.4252 36.599 28.1502 36.2139 27.7919C35.8292 27.434 35.5291 27 35.3137 26.4903C35.0987 25.9805 34.9915 25.4123 34.9915 24.7843Z" fill="#8AC1CE"/>
<path d="M44.7224 20.8625H47.1224L50.5299 26.313H50.5525V20.8625H52.3185V28.7054H50.009L46.511 23.1225H46.4884V28.7054H44.7224V20.8625Z" fill="#8AC1CE"/>
<path d="M55.6024 27.1107H56.5193C56.9271 27.1107 57.3063 27.0703 57.6571 26.9889C58.0083 26.9078 58.3115 26.7727 58.5681 26.5845C58.8247 26.3963 59.027 26.1487 59.1737 25.8422C59.3212 25.5362 59.3945 25.1611 59.3945 24.7178C59.3945 24.3338 59.3212 23.9999 59.1737 23.7151C59.027 23.4312 58.8288 23.1965 58.5794 23.0118C58.3305 22.8276 58.0382 22.689 57.7023 22.5964C57.3665 22.5043 57.0135 22.4578 56.6438 22.4578H55.6024V27.1107ZM53.8364 20.8625H56.4854C57.1267 20.8625 57.7363 20.933 58.3138 21.0734C58.8913 21.2137 59.3945 21.4405 59.8249 21.7545C60.2549 22.0685 60.5966 22.4764 60.8491 22.9786C61.1021 23.4808 61.2288 24.0902 61.2288 24.8064C61.2288 25.4419 61.1062 26.0012 60.8609 26.4844C60.6156 26.9685 60.2852 27.3746 59.8702 27.7032C59.4552 28.0323 58.9759 28.2812 58.4323 28.4512C57.8893 28.6209 57.319 28.7059 56.723 28.7059H53.8364V20.8625Z" fill="#8AC1CE"/>
<path d="M62.3369 20.8625H67.7819V22.4578H64.1029V23.9202H67.5782V25.5154H64.1029V27.1107H67.986V28.7054H62.3369V20.8625Z" fill="#8AC1CE"/>
<path d="M71.0343 24.1084H72.0761C72.2341 24.1084 72.4024 24.1031 72.5794 24.0916C72.7568 24.0805 72.917 24.0473 73.0605 23.9919C73.2039 23.9365 73.3229 23.8502 73.4171 23.7319C73.5117 23.6137 73.5588 23.4476 73.5588 23.2333C73.5588 23.034 73.5171 22.875 73.4343 22.7567C73.351 22.6389 73.2456 22.5486 73.1175 22.4852C72.989 22.4228 72.8414 22.3803 72.6758 22.3581C72.5097 22.336 72.3476 22.3249 72.1888 22.3249H71.0343V24.1084ZM69.2683 20.8625H72.3703C72.7776 20.8625 73.1645 20.9011 73.5307 20.979C73.8964 21.0565 74.2172 21.1858 74.4929 21.3665C74.768 21.5477 74.9871 21.7913 75.1496 22.0977C75.3116 22.4042 75.3926 22.7864 75.3926 23.2443C75.3926 23.7984 75.2455 24.2687 74.9513 24.6567C74.6572 25.0446 74.2268 25.29 73.6606 25.3936L75.6981 28.7059H73.5814L71.9059 25.5708H71.0343V28.7059H69.2683V20.8625Z" fill="#8AC1CE"/>
<path d="M75.5864 20.8625H77.5108L78.7902 25.8919H78.8128L80.4883 20.8625H82.1298L83.7935 26.0247H83.8165L85.1634 20.8625H86.952L84.609 28.7054H83.0354L81.2694 23.2776H81.2468L79.4804 28.7054H77.9638L75.5864 20.8625Z" fill="#8AC1CE"/>
<path d="M89.3665 20.8625H87.6006V28.7054H89.3665V20.8625Z" fill="#8AC1CE"/>
<path d="M95.0153 26.0806C95.0153 26.4424 94.9831 26.7936 94.9193 27.1328C94.855 27.473 94.7324 27.7737 94.5509 28.0359C94.3699 28.298 94.1114 28.5084 93.7756 28.667C93.4398 28.8259 93.0004 28.9052 92.4573 28.9052C91.8232 28.9052 91.2869 28.7578 90.8497 28.4624C90.4116 28.167 90.1288 27.7055 90.0002 27.0775L91.62 26.69C91.6417 26.8817 91.7309 27.0443 91.8857 27.1771C92.04 27.31 92.2161 27.3769 92.412 27.3769C92.6157 27.3769 92.7741 27.3268 92.8872 27.2272C93.0004 27.1271 93.0832 27.0035 93.1361 26.856C93.1891 26.7086 93.2212 26.5478 93.2326 26.3742C93.2439 26.2006 93.2493 26.0403 93.2493 25.8923V20.863H95.0153V26.0806Z" fill="#8AC1CE"/>
<path d="M100.361 22.7794C100.217 22.6023 100.023 22.4712 99.7779 22.3861C99.5326 22.3011 99.3004 22.2586 99.0814 22.2586C98.9533 22.2586 98.8211 22.2736 98.6854 22.3029C98.5496 22.3325 98.4211 22.3786 98.3007 22.4415C98.1798 22.5044 98.0816 22.5876 98.0065 22.6908C97.9305 22.7945 97.8929 22.9198 97.8929 23.0673C97.8929 23.3038 97.9834 23.4849 98.1644 23.6102C98.3459 23.7356 98.574 23.8427 98.8497 23.9313C99.1248 24.0203 99.4213 24.1089 99.7385 24.1975C100.055 24.2861 100.351 24.4118 100.627 24.5739C100.903 24.7365 101.131 24.9544 101.312 25.2276C101.493 25.5009 101.583 25.8667 101.583 26.3242C101.583 26.76 101.5 27.1404 101.334 27.4655C101.168 27.7905 100.944 28.0598 100.661 28.2742C100.378 28.4881 100.049 28.6471 99.6761 28.7503C99.3022 28.8535 98.908 28.9053 98.493 28.9053C97.9721 28.9053 97.4892 28.8278 97.0443 28.6728C96.5985 28.5177 96.1835 28.2666 95.7988 27.9194L97.0552 26.5682C97.2367 26.8047 97.4648 26.9872 97.7404 27.116C98.0156 27.2454 98.3007 27.31 98.5949 27.31C98.7383 27.31 98.8836 27.2936 99.0307 27.2604C99.1778 27.2272 99.3099 27.1772 99.4271 27.1107C99.5439 27.0443 99.638 26.9597 99.71 26.8561C99.7815 26.7529 99.8173 26.6307 99.8173 26.4903C99.8173 26.2542 99.7249 26.0678 99.5403 25.9309C99.3547 25.7945 99.123 25.678 98.8442 25.5819C98.565 25.4863 98.2627 25.3901 97.9386 25.294C97.6137 25.1984 97.3118 25.0691 97.033 24.9065C96.7533 24.744 96.5211 24.5296 96.3365 24.2639C96.1514 23.9978 96.0591 23.6474 96.0591 23.2116C96.0591 22.7905 96.1441 22.4211 96.3134 22.1036C96.4836 21.786 96.7099 21.5203 96.9932 21.306C97.276 21.092 97.6024 20.9313 97.9721 20.8241C98.3419 20.7169 98.7229 20.6633 99.1158 20.6633C99.5684 20.6633 100.006 20.7262 100.429 20.852C100.851 20.9778 101.232 21.1877 101.572 21.4831L100.361 22.7794Z" fill="#8AC1CE"/>
</svg>
