<?xml version="1.0" encoding="utf-8"?>
<!-- Generator: Adobe Illustrator 17.1.0, SVG Export Plug-In . SVG Version: 6.00 Build 0)  -->
<!DOCTYPE svg PUBLIC "-//W3C//DTD SVG 1.1//EN" "http://www.w3.org/Graphics/SVG/1.1/DTD/svg11.dtd">
<svg version="1.1" id="Layer_1" xmlns="http://www.w3.org/2000/svg" xmlns:xlink="http://www.w3.org/1999/xlink" x="0px" y="0px"
	 viewBox="0 0 621 129" enable-background="new 0 0 621 129" xml:space="preserve">
<g>
	<rect x="25.7" y="51.2" fill="#F96830" width="77.2" height="25.7"/>
	<rect x="25.7" y="102.6" fill="#F96830" width="76.9" height="25.7"/>
	<g>
		<polygon fill="#36424D" points="154.9,51.6 166,51.6 166,70.5 187.6,70.5 187.6,51.6 198.7,51.6 198.7,102.1 187.6,102.1 
			187.6,80.3 166,80.3 166,102.1 154.9,102.1 		"/>
		<polygon fill="#36424D" points="209.4,51.6 243.7,51.6 243.7,61.9 220.5,61.9 220.5,71.3 242.4,71.3 242.4,81.6 220.5,81.6 
			220.5,91.9 245,91.9 245,102.1 209.4,102.1 		"/>
		<polygon fill="#36424D" points="263.7,61.5 249.3,61.5 249.3,51.6 289.2,51.6 289.2,61.5 274.8,61.5 274.8,102.1 263.7,102.1 		
			"/>
		<path fill="#36424D" d="M332.6,51.6h9.2l22,50.5h-12.6l-4.3-10.7h-19.6l-4.2,10.7h-12.3L332.6,51.6z M336.8,66.3L330.7,82H343
			L336.8,66.3z"/>
		<path fill="#36424D" d="M368.8,51.6h19.5c2.6,0,5,0.2,7.3,0.7c2.3,0.5,4.3,1.3,6.1,2.5c1.7,1.2,3.1,2.7,4.1,4.7
			c1,2,1.5,4.4,1.5,7.4c0,3.6-0.9,6.6-2.8,9.1c-1.9,2.5-4.6,4.1-8.1,4.7l12.8,21.3H396L385.4,82h-5.5v20.2h-11.1V51.6z M379.9,72.5
			h6.6c1,0,2.1,0,3.2-0.1c1.1-0.1,2.1-0.3,3-0.6c0.9-0.4,1.7-0.9,2.2-1.7c0.6-0.8,0.9-1.8,0.9-3.2c0-1.3-0.3-2.3-0.8-3.1
			c-0.5-0.8-1.2-1.3-2-1.7c-0.8-0.4-1.7-0.7-2.8-0.8c-1-0.1-2.1-0.2-3.1-0.2h-7.3V72.5z"/>
		<path fill="#36424D" d="M448,64.8c-1.1-1.3-2.4-2.4-4-3.1c-1.6-0.7-3.4-1.1-5.5-1.1c-2.1,0-4,0.4-5.8,1.2
			c-1.8,0.8-3.3,1.9-4.6,3.4c-1.3,1.5-2.3,3.2-3.1,5.2c-0.7,2-1.1,4.2-1.1,6.5c0,2.4,0.4,4.6,1.1,6.5c0.7,2,1.7,3.7,3,5.1
			c1.3,1.5,2.8,2.6,4.5,3.4c1.7,0.8,3.6,1.2,5.6,1.2c2.3,0,4.3-0.5,6.1-1.4c1.8-1,3.2-2.3,4.3-4l9.3,6.9c-2.1,3-4.8,5.2-8.1,6.6
			c-3.3,1.4-6.7,2.1-10.1,2.1c-3.9,0-7.6-0.6-10.9-1.9c-3.3-1.2-6.2-3-8.6-5.3c-2.4-2.3-4.3-5.1-5.7-8.4c-1.4-3.3-2-6.9-2-11
			c0-4,0.7-7.7,2-11c1.4-3.3,3.2-6.1,5.7-8.4c2.4-2.3,5.3-4.1,8.6-5.3c3.3-1.2,7-1.9,10.9-1.9c1.4,0,2.9,0.1,4.5,0.4
			c1.5,0.3,3.1,0.7,4.6,1.2c1.5,0.6,2.9,1.3,4.3,2.3c1.4,1,2.6,2.1,3.7,3.5L448,64.8z"/>
		<polygon fill="#36424D" points="463.8,51.6 475,51.6 475,70.5 496.6,70.5 496.6,51.6 507.7,51.6 507.7,102.1 496.6,102.1 
			496.6,80.3 475,80.3 475,102.1 463.8,102.1 		"/>
		<rect x="517.8" y="51.6" fill="#36424D" width="11.1" height="50.5"/>
		<polygon fill="#36424D" points="539.5,51.6 573.8,51.6 573.8,61.9 550.6,61.9 550.6,71.3 572.5,71.3 572.5,81.6 550.6,81.6 
			550.6,91.9 575.1,91.9 575.1,102.1 539.5,102.1 		"/>
		<polygon fill="#36424D" points="584.4,51.6 618.3,51.6 618.3,61.9 595.5,61.9 595.5,72.2 616.6,72.2 616.6,82.5 595.5,82.5 
			595.5,102.1 584.4,102.1 		"/>
	</g>
	<rect x="25.7" y="0" fill="#F96830" width="76.9" height="25.7"/>
	<rect x="102.6" y="25.6" fill="#36424D" width="25.7" height="102.7"/>
	<rect x="0" y="76.9" fill="#36424D" width="25.7" height="25.7"/>
</g>
</svg>
