<svg id="Layer_1" data-name="Layer 1" xmlns="http://www.w3.org/2000/svg" viewBox="0 0 618.29 129.99"><defs><style>.cls-1{fill:#b3b3b3;}.cls-2{fill:#333;}</style></defs><title>Artboard 1</title><rect class="cls-1" x="25.68" y="51.24" width="77.21" height="25.68"/><rect class="cls-1" x="25.68" y="102.6" width="76.95" height="25.68"/><polygon class="cls-2" points="154.86 51.65 165.98 51.65 165.98 70.47 187.59 70.47 187.59 51.65 198.72 51.65 198.72 102.13 187.59 102.13 187.59 80.31 165.98 80.31 165.98 102.13 154.86 102.13 154.86 51.65"/><polygon class="cls-2" points="209.41 51.65 243.71 51.65 243.71 61.91 220.53 61.91 220.53 71.33 242.43 71.33 242.43 81.6 220.53 81.6 220.53 91.86 245 91.86 245 102.13 209.41 102.13 209.41 51.65"/><polygon class="cls-2" points="263.68 61.49 249.27 61.49 249.27 51.65 289.21 51.65 289.21 61.49 274.8 61.49 274.8 102.13 263.68 102.13 263.68 61.49"/><path class="cls-2" d="M332.56,51.65h9.2l22,50.48H351.17l-4.35-10.69H327.21L323,102.13H310.74Zm4.28,14.69L330.71,82H343Z"/><path class="cls-2" d="M368.79,51.65h19.53a34.37,34.37,0,0,1,7.31.75,17.36,17.36,0,0,1,6.06,2.49,12.39,12.39,0,0,1,4.14,4.71A16,16,0,0,1,407.36,67a14.79,14.79,0,0,1-2.78,9.09,12.46,12.46,0,0,1-8.13,4.74l12.84,21.32H396L385.4,82h-5.49v20.18H368.79Zm11.12,20.89h6.56c1,0,2,0,3.17-.11a9.76,9.76,0,0,0,3-.64,4.74,4.74,0,0,0,3.14-4.88A4.9,4.9,0,0,0,393,62.09a9.23,9.23,0,0,0-2.78-.82,23.18,23.18,0,0,0-3.07-.21h-7.27Z"/><path class="cls-2" d="M448,64.77a11,11,0,0,0-4-3.07,13.42,13.42,0,0,0-5.52-1.07,14.07,14.07,0,0,0-5.82,1.21A13.87,13.87,0,0,0,428,65.23a15.77,15.77,0,0,0-3.07,5.17,19.81,19.81,0,0,0,0,13,16.35,16.35,0,0,0,3,5.13,13.69,13.69,0,0,0,4.53,3.39,13.08,13.08,0,0,0,5.6,1.21,12.45,12.45,0,0,0,6.06-1.43,12,12,0,0,0,4.35-4l9.27,6.92a19.37,19.37,0,0,1-8.13,6.63,25.28,25.28,0,0,1-10.13,2.14,31,31,0,0,1-10.91-1.86A24.72,24.72,0,0,1,420,96.25a23.9,23.9,0,0,1-5.67-8.38,28.41,28.41,0,0,1-2-11,28.41,28.41,0,0,1,2-11A24,24,0,0,1,420,57.53a24.86,24.86,0,0,1,8.62-5.31,31,31,0,0,1,10.91-1.86,25.83,25.83,0,0,1,4.46.4A24,24,0,0,1,448.55,52a20.53,20.53,0,0,1,4.31,2.28,17.52,17.52,0,0,1,3.71,3.5Z"/><polygon class="cls-2" points="463.84 51.65 474.96 51.65 474.96 70.47 496.57 70.47 496.57 51.65 507.7 51.65 507.7 102.13 496.57 102.13 496.57 80.31 474.96 80.31 474.96 102.13 463.84 102.13 463.84 51.65"/><rect class="cls-2" x="517.82" y="51.65" width="11.12" height="50.49"/><polygon class="cls-2" points="539.5 51.65 573.8 51.65 573.8 61.91 550.62 61.91 550.62 71.33 572.51 71.33 572.51 81.6 550.62 81.6 550.62 91.86 575.08 91.86 575.08 102.13 539.5 102.13 539.5 51.65"/><polygon class="cls-2" points="584.42 51.65 618.29 51.65 618.29 61.91 595.55 61.91 595.55 72.18 616.58 72.18 616.58 82.45 595.55 82.45 595.55 102.13 584.42 102.13 584.42 51.65"/><rect class="cls-1" x="25.68" width="76.95" height="25.68"/><rect class="cls-2" x="102.63" y="25.56" width="25.68" height="102.71"/><rect class="cls-2" y="76.92" width="25.68" height="25.68"/></svg>