<?xml version="1.0" encoding="UTF-8"?>
<svg id="Laag_2" data-name="Laag 2" xmlns="http://www.w3.org/2000/svg" viewBox="0 0 316.11 65.77">
  <defs>
    <style>
      .cls-1 {
        fill: #8d8d8d;
      }

      .cls-2 {
        fill: #404040;
      }
    </style>
  </defs>
  <g id="Layer_1" data-name="Layer 1">
    <g>
      <path class="cls-1" d="M78.69,54.15h7.7v2.3h-5.2v2.11h4.91v2.3h-4.91v2.3h5.49v2.3h-7.98v-11.33Z"/>
      <path class="cls-1" d="M88.73,54.15h7.7v2.3h-5.2v2.11h4.91v2.3h-4.91v2.3h5.49v2.3h-7.98v-11.33Z"/>
      <path class="cls-1" d="M98.69,54.15h3.39l4.82,7.87h.03v-7.87h2.5v11.33h-3.26l-4.94-8.06h-.03v8.06h-2.5v-11.33Z"/>
      <path class="cls-1" d="M116.37,54.15h2.5v11.33h-2.5v-11.33Z"/>
      <path class="cls-1" d="M121.1,54.15h3.39l4.82,7.87h.03v-7.87h2.5v11.33h-3.26l-4.94-8.06h-.03v8.06h-2.5v-11.33Z"/>
      <path class="cls-1" d="M134.08,54.15h2.5v11.33h-2.5v-11.33Z"/>
      <path class="cls-1" d="M141.01,56.36h-3.23v-2.21h8.96v2.21h-3.23v9.12h-2.5v-9.12Z"/>
      <path class="cls-1" d="M147.93,54.15h2.5v11.33h-2.5v-11.33Z"/>
      <path class="cls-1" d="M156.4,54.15h2.06l4.93,11.33h-2.82l-.97-2.4h-4.4l-.94,2.4h-2.75l4.9-11.33Zm.96,3.3l-1.38,3.52h2.77l-1.39-3.52Z"/>
      <path class="cls-1" d="M165.21,56.36h-3.23v-2.21h8.96v2.21h-3.23v9.12h-2.5v-9.12Z"/>
      <path class="cls-1" d="M172.14,54.15h2.5v11.33h-2.5v-11.33Z"/>
      <path class="cls-1" d="M176.97,54.15h7.7v2.3h-5.2v2.11h4.91v2.3h-4.91v2.3h5.49v2.3h-7.98v-11.33Z"/>
      <path class="cls-1" d="M187.02,54.15h7.6v2.3h-5.1v2.3h4.72v2.3h-4.72v4.42h-2.5v-11.33Z"/>
      <path class="cls-1" d="M199.96,54.15h2.85l2.8,7.42h.03l2.85-7.42h2.67l-4.67,11.33h-2l-4.53-11.33Z"/>
      <path class="cls-1" d="M215.16,54.15h2.06l4.93,11.33h-2.82l-.98-2.4h-4.4l-.94,2.4h-2.75l4.9-11.33Zm.96,3.3l-1.38,3.52h2.77l-1.39-3.52Z"/>
      <path class="cls-1" d="M223.26,54.15h3.39l4.82,7.87h.03v-7.87h2.5v11.33h-3.26l-4.94-8.06h-.03v8.06h-2.5v-11.33Z"/>
      <path class="cls-1" d="M240.97,54.15h3.78l2.61,7.39h.03l2.62-7.39h3.76v11.33h-2.5v-8.69h-.03l-2.98,8.69h-1.9l-2.86-8.69h-.03v8.69h-2.5v-11.33Z"/>
      <path class="cls-1" d="M256.14,54.15h7.7v2.3h-5.2v2.11h4.91v2.3h-4.91v2.3h5.49v2.3h-7.98v-11.33Z"/>
      <path class="cls-1" d="M266.19,54.15h7.7v2.3h-5.2v2.11h4.91v2.3h-4.91v2.3h5.49v2.3h-7.98v-11.33Z"/>
      <path class="cls-1" d="M276.14,54.15h3.78l2.61,7.39h.03l2.62-7.39h3.76v11.33h-2.5v-8.69h-.03l-2.98,8.69h-1.9l-2.86-8.69h-.03v8.69h-2.5v-11.33Z"/>
      <path class="cls-1" d="M290.6,59.82c0-.91,.15-1.73,.46-2.46s.73-1.36,1.27-1.88c.54-.52,1.19-.91,1.94-1.19,.75-.28,1.56-.42,2.45-.42s1.7,.14,2.45,.42c.75,.28,1.39,.67,1.94,1.19,.54,.52,.97,1.14,1.27,1.88,.3,.74,.46,1.56,.46,2.46s-.15,1.73-.46,2.46c-.3,.74-.73,1.36-1.27,1.88-.54,.52-1.19,.91-1.94,1.19-.75,.28-1.56,.42-2.45,.42s-1.7-.14-2.45-.42c-.75-.28-1.39-.67-1.94-1.19-.54-.52-.97-1.14-1.27-1.88-.3-.74-.46-1.56-.46-2.46Zm2.59,0c0,.53,.08,1.02,.25,1.46,.17,.44,.4,.83,.71,1.15s.68,.58,1.11,.76c.43,.18,.91,.27,1.45,.27s1.02-.09,1.45-.27c.43-.18,.8-.43,1.11-.76s.55-.71,.71-1.15c.17-.44,.25-.93,.25-1.46s-.08-1.01-.25-1.46c-.17-.45-.4-.83-.71-1.16-.31-.33-.68-.58-1.11-.76-.43-.18-.91-.27-1.45-.27s-1.02,.09-1.45,.27c-.43,.18-.8,.43-1.11,.76-.31,.33-.55,.71-.71,1.16-.17,.45-.25,.93-.25,1.46Z"/>
      <path class="cls-1" d="M303.88,59.82c0-.91,.15-1.73,.46-2.46s.73-1.36,1.27-1.88c.54-.52,1.19-.91,1.94-1.19,.75-.28,1.56-.42,2.45-.42s1.7,.14,2.45,.42c.75,.28,1.39,.67,1.94,1.19,.54,.52,.97,1.14,1.27,1.88,.3,.74,.46,1.56,.46,2.46s-.15,1.73-.46,2.46c-.3,.74-.73,1.36-1.27,1.88-.54,.52-1.19,.91-1.94,1.19-.75,.28-1.56,.42-2.45,.42s-1.7-.14-2.45-.42c-.75-.28-1.39-.67-1.94-1.19-.54-.52-.97-1.14-1.27-1.88-.3-.74-.46-1.56-.46-2.46Zm2.59,0c0,.53,.08,1.02,.25,1.46,.17,.44,.4,.83,.71,1.15s.68,.58,1.11,.76c.43,.18,.91,.27,1.45,.27s1.02-.09,1.45-.27c.43-.18,.8-.43,1.11-.76s.55-.71,.71-1.15c.17-.44,.25-.93,.25-1.46s-.08-1.01-.25-1.46c-.17-.45-.4-.83-.71-1.16-.31-.33-.68-.58-1.11-.76-.43-.18-.91-.27-1.45-.27s-1.02,.09-1.45,.27c-.43,.18-.8,.43-1.11,.76-.31,.33-.55,.71-.71,1.16-.17,.45-.25,.93-.25,1.46Z"/>
    </g>
    <g>
      <rect class="cls-1" x="13.11" y="26.16" width="39.41" height="13.11"/>
      <rect class="cls-1" x="13.11" y="52.37" width="39.28" height="13.11"/>
      <rect class="cls-1" x="13.11" width="39.28" height="13.11"/>
      <rect class="cls-2" x="52.39" y="13.05" width="13.11" height="52.43"/>
      <rect class="cls-2" y="39.26" width="13.11" height="13.11"/>
    </g>
    <g>
      <polygon class="cls-2" points="78.7 13.18 84.39 13.18 84.39 22.82 95.45 22.82 95.45 13.18 101.15 13.18 101.15 39.03 95.45 39.03 95.45 27.85 84.39 27.85 84.39 39.03 78.7 39.03 78.7 13.18"/>
      <polygon class="cls-2" points="106.63 13.18 124.19 13.18 124.19 18.44 112.32 18.44 112.32 23.25 123.53 23.25 123.53 28.51 112.32 28.51 112.32 33.77 124.84 33.77 124.84 39.03 106.63 39.03 106.63 13.18"/>
      <polygon class="cls-2" points="134.41 18.22 127.03 18.22 127.03 13.18 147.48 13.18 147.48 18.22 140.1 18.22 140.1 39.03 134.41 39.03 134.41 18.22"/>
      <path class="cls-2" d="M169.68,13.18h4.71l11.24,25.85h-6.43l-2.23-5.48h-10.04l-2.15,5.48h-6.28l11.17-25.85Zm2.19,7.52l-3.14,8.03h6.32l-3.18-8.03Z"/>
      <path class="cls-2" d="M188.22,13.18h10c1.31,0,2.56,.13,3.74,.38,1.18,.26,2.21,.68,3.1,1.28,.89,.6,1.59,1.4,2.12,2.41,.52,1.01,.79,2.27,.79,3.78,0,1.83-.47,3.38-1.42,4.65-.95,1.28-2.34,2.09-4.16,2.43l6.57,10.92h-6.83l-5.4-10.33h-2.81v10.33h-5.7V13.18Zm5.7,10.7h3.36c.51,0,1.05-.02,1.62-.05,.57-.04,1.09-.15,1.55-.33,.46-.18,.84-.47,1.15-.86,.3-.39,.46-.94,.46-1.64,0-.66-.13-1.18-.4-1.57-.27-.39-.61-.69-1.02-.89-.42-.21-.89-.35-1.42-.42-.53-.07-1.06-.11-1.57-.11h-3.72v5.88Z"/>
      <path class="cls-2" d="M228.78,19.9c-.56-.68-1.25-1.2-2.06-1.57-.82-.36-1.76-.55-2.83-.55s-2.06,.21-2.98,.62c-.91,.41-1.7,.99-2.37,1.73-.67,.74-1.19,1.62-1.57,2.65-.38,1.02-.57,2.13-.57,3.32s.19,2.33,.57,3.34c.38,1.01,.89,1.89,1.55,2.63,.66,.74,1.43,1.32,2.32,1.73,.89,.41,1.84,.62,2.87,.62,1.17,0,2.2-.24,3.1-.73,.9-.49,1.64-1.17,2.23-2.05l4.75,3.54c-1.09,1.53-2.48,2.67-4.16,3.4-1.68,.73-3.41,1.1-5.18,1.1-2.02,0-3.88-.32-5.59-.95-1.7-.63-3.18-1.54-4.42-2.72-1.24-1.18-2.21-2.61-2.9-4.29-.69-1.68-1.04-3.55-1.04-5.62s.35-3.94,1.04-5.62c.69-1.68,1.66-3.11,2.9-4.29,1.24-1.18,2.71-2.09,4.42-2.72,1.7-.63,3.57-.95,5.59-.95,.73,0,1.49,.07,2.28,.2,.79,.13,1.57,.35,2.34,.64,.77,.29,1.5,.68,2.21,1.17,.71,.49,1.34,1.08,1.9,1.79l-4.38,3.58Z"/>
      <polygon class="cls-2" points="236.89 13.18 242.58 13.18 242.58 22.82 253.65 22.82 253.65 13.18 259.34 13.18 259.34 39.03 253.65 39.03 253.65 27.85 242.58 27.85 242.58 39.03 236.89 39.03 236.89 13.18"/>
      <rect class="cls-2" x="264.53" y="13.18" width="5.7" height="25.85"/>
      <polygon class="cls-2" points="275.62 13.18 293.19 13.18 293.19 18.44 281.32 18.44 281.32 23.25 292.53 23.25 292.53 28.51 281.32 28.51 281.32 33.77 293.84 33.77 293.84 39.03 275.62 39.03 275.62 13.18"/>
      <polygon class="cls-2" points="298.63 13.18 315.97 13.18 315.97 18.44 304.32 18.44 304.32 23.69 315.09 23.69 315.09 28.95 304.32 28.95 304.32 39.03 298.63 39.03 298.63 13.18"/>
    </g>
  </g>
</svg>