<?xml version="1.0" encoding="UTF-8" standalone="no"?>
<svg
   width="210.002"
   height="103.952"
   viewBox="0 0 210.00201 103.952"
   version="1.1"
   id="svg42"
   sodipodi:docname="logo-meemoo.svg"
   inkscape:version="1.2.1 (9c6d41e4, 2022-07-14)"
   xmlns:inkscape="http://www.inkscape.org/namespaces/inkscape"
   xmlns:sodipodi="http://sodipodi.sourceforge.net/DTD/sodipodi-0.dtd"
   xmlns="http://www.w3.org/2000/svg"
   xmlns:svg="http://www.w3.org/2000/svg">
  <defs
     id="defs46" />
  <sodipodi:namedview
     id="namedview44"
     pagecolor="#ffffff"
     bordercolor="#000000"
     borderopacity="0.25"
     inkscape:showpageshadow="2"
     inkscape:pageopacity="0.0"
     inkscape:pagecheckerboard="0"
     inkscape:deskcolor="#d1d1d1"
     showgrid="false"
     inkscape:zoom="2.269209"
     inkscape:cx="104.88236"
     inkscape:cy="52.0005"
     inkscape:window-width="1309"
     inkscape:window-height="456"
     inkscape:window-x="0"
     inkscape:window-y="25"
     inkscape:window-maximized="0"
     inkscape:current-layer="svg42" />
  <g
     id="Group_2990"
     data-name="Group 2990"
     transform="translate(13343.001,2098.904)">
    <g
       id="Group_2986"
       data-name="Group 2986">
      <path
         id="Path_1352"
         data-name="Path 1352"
         d="m 230.152,381.6 a 21.144,21.144 0 1 0 -21.144,21.19 21.168,21.168 0 0 0 21.144,-21.19"
         transform="translate(-13530.864,-2459.406)"
         fill="#00c8aa" />
      <rect
         id="Rectangle_3905"
         data-name="Rectangle 3905"
         width="22.370001"
         height="40.261002"
         transform="translate(-13300.713,-2097.94)"
         fill="#00c8aa"
         x="0"
         y="0" />
    </g>
    <g
       id="Group_2987"
       data-name="Group 2987">
      <path
         id="Path_1353"
         data-name="Path 1353"
         d="M 230.051,432.587 V 449.2 h -6.986 v -14.352 c 0,-3.769 -1.908,-5.843 -5.079,-5.843 -3.01,0 -5.508,1.967 -5.508,5.9 v 14.3 h -7.013 v -14.357 c 0,-3.769 -1.881,-5.843 -5.079,-5.843 -3.009,0 -5.508,1.967 -5.508,5.9 v 14.3 h -7.013 v -26.097 h 6.825 v 3.07 a 8.718,8.718 0 0 1 7.658,-3.77 9.855,9.855 0 0 1 8.6,4.47 c 2.016,-3.312 5.428,-4.47 8.841,-4.47 6.126,0 10.264,4.12 10.264,10.179"
         transform="translate(-13530.864,-2461.897)" />
      <path
         id="Path_1354"
         data-name="Path 1354"
         d="m 261.826,436.115 a 20.422,20.422 0 0 1 -0.134,2.369 h -18.46 c 0.752,3.77 3.386,5.413 6.691,5.413 a 10.514,10.514 0 0 0 6.582,-2.5 l 4.112,4.524 a 15.778,15.778 0 0 1 -11.1,3.958 c -7.98,0 -13.515,-5.439 -13.515,-13.653 0,-8.214 5.374,-13.815 13.166,-13.815 7.5,0 12.629,5.574 12.656,13.707 m -18.567,-2.425 h 11.527 c -0.645,-3.339 -2.661,-5.223 -5.67,-5.223 -3.305,0 -5.24,1.992 -5.857,5.223"
         transform="translate(-13532.9,-2461.897)" />
      <path
         id="Path_1355"
         data-name="Path 1355"
         d="m 291.393,436.115 a 20.235,20.235 0 0 1 -0.134,2.369 H 272.8 c 0.753,3.77 3.386,5.413 6.691,5.413 a 10.516,10.516 0 0 0 6.583,-2.5 l 4.111,4.524 a 15.78,15.78 0 0 1 -11.1,3.958 c -7.98,0 -13.515,-5.439 -13.515,-13.653 0,-8.214 5.374,-13.815 13.166,-13.815 7.5,0 12.629,5.574 12.656,13.707 m -18.567,-2.425 h 11.527 c -0.645,-3.339 -2.66,-5.223 -5.669,-5.223 -3.305,0 -5.241,1.992 -5.858,5.223"
         transform="translate(-13534.15,-2461.897)" />
      <path
         id="Path_1356"
         data-name="Path 1356"
         d="M 339.008,432.587 V 449.2 h -6.986 v -14.352 c 0,-3.769 -1.909,-5.843 -5.079,-5.843 -3.01,0 -5.509,1.967 -5.509,5.9 v 14.3 h -7.013 v -14.357 c 0,-3.769 -1.88,-5.843 -5.078,-5.843 -3.009,0 -5.509,1.967 -5.509,5.9 v 14.3 h -7.012 v -26.097 h 6.825 v 3.07 a 8.717,8.717 0 0 1 7.658,-3.77 9.856,9.856 0 0 1 8.6,4.47 c 2.015,-3.312 5.427,-4.47 8.84,-4.47 6.127,0 10.265,4.12 10.265,10.179"
         transform="translate(-13535.472,-2461.897)" />
      <path
         id="Path_1357"
         data-name="Path 1357"
         d="m 373.12,436.141 c 0,7.864 -5.992,13.734 -14.107,13.734 -8.087,0 -14.052,-5.87 -14.052,-13.734 0,-7.864 5.965,-13.733 14.052,-13.733 8.116,0 14.107,5.87 14.107,13.733 m -21.012,0 a 6.924,6.924 0 1 0 6.905,-7.19 6.815,6.815 0 0 0 -6.905,7.19"
         transform="translate(-13537.507,-2461.897)" />
      <path
         id="Path_1358"
         data-name="Path 1358"
         d="m 405.128,436.141 c 0,7.864 -5.992,13.734 -14.106,13.734 -8.088,0 -14.053,-5.87 -14.053,-13.734 0,-7.864 5.965,-13.733 14.053,-13.733 8.115,0 14.106,5.87 14.106,13.733 m -21.012,0 a 6.924,6.924 0 1 0 6.906,-7.19 6.816,6.816 0 0 0 -6.906,7.19"
         transform="translate(-13538.86,-2461.897)" />
      <path
         id="Path_1359"
         data-name="Path 1359"
         d="m 195.3,460.086 -2.762,8.19 h -1.914 l -2.761,-8.19 h 1.693 l 2.037,6.447 2.049,-6.447 z"
         transform="translate(-13530.864,-2463.411)" />
      <path
         id="Path_1360"
         data-name="Path 1360"
         d="m 201.829,466.79 v 1.486 h -5.335 v -8.191 h 1.6 v 6.7 z"
         transform="translate(-13531.229,-2463.411)" />
      <path
         id="Path_1361"
         data-name="Path 1361"
         d="m 207.688,466.422 h -3.007 l -0.595,1.854 h -1.659 l 2.826,-8.19 h 1.891 l 2.825,8.19 h -1.687 z m -0.473,-1.457 -1.033,-3.206 -1.028,3.206 z"
         transform="translate(-13531.48,-2463.411)" />
      <path
         id="Path_1362"
         data-name="Path 1362"
         d="m 215.756,466.422 h -3.006 l -0.6,1.854 h -1.65 l 2.825,-8.19 h 1.892 l 2.825,8.19 h -1.688 z m -0.473,-1.457 -1.033,-3.206 -1.028,3.206 z"
         transform="translate(-13531.821,-2463.411)" />
      <path
         id="Path_1363"
         data-name="Path 1363"
         d="m 227.448,468.276 h -1.588 v -6.025 l -1.7,4.709 h -1.622 l -1.7,-4.685 v 6 h -1.594 v -8.19 h 2.253 l 1.856,4.979 1.856,-4.979 h 2.247 z"
         transform="translate(-13532.191,-2463.411)" />
      <path
         id="Path_1364"
         data-name="Path 1364"
         d="m 234.319,462.116 a 3.359,3.359 0 0 0 -1.99,-0.673 c -0.777,0 -1.331,0.345 -1.331,0.937 0,0.549 0.566,0.783 1.454,0.989 l 0.484,0.11 c 1.425,0.327 2.312,1.041 2.312,2.334 0,1.726 -1.413,2.586 -3.076,2.586 a 4.616,4.616 0 0 1 -3.117,-1.111 l 0.922,-1.206 a 3.342,3.342 0 0 0 2.2,0.831 c 0.787,0 1.378,-0.339 1.378,-0.948 0,-0.537 -0.467,-0.783 -1.4,-0.989 l -0.532,-0.117 c -1.5,-0.327 -2.3,-1.111 -2.3,-2.409 0,-1.51 1.248,-2.5 2.971,-2.5 a 4.681,4.681 0 0 1 2.871,0.93 z"
         transform="translate(-13532.606,-2463.406)" />
      <rect
         id="Rectangle_3906"
         data-name="Rectangle 3906"
         width="1.599"
         height="8.1899996"
         transform="translate(-13293.718,-2003.325)"
         x="0"
         y="0" />
      <path
         id="Path_1365"
         data-name="Path 1365"
         d="m 249.185,468.276 h -1.529 l -3.526,-5.324 v 5.324 h -1.588 v -8.19 h 1.53 l 3.532,5.336 v -5.336 h 1.582 z"
         transform="translate(-13533.177,-2463.411)" />
      <path
         id="Path_1366"
         data-name="Path 1366"
         d="m 255.986,462.116 a 3.357,3.357 0 0 0 -1.99,-0.673 c -0.777,0 -1.331,0.345 -1.331,0.937 0,0.549 0.567,0.783 1.454,0.989 l 0.485,0.11 c 1.424,0.327 2.312,1.041 2.312,2.334 0,1.726 -1.414,2.586 -3.077,2.586 a 4.613,4.613 0 0 1 -3.116,-1.111 l 0.921,-1.206 a 3.344,3.344 0 0 0 2.2,0.831 c 0.788,0 1.378,-0.339 1.378,-0.948 0,-0.537 -0.467,-0.783 -1.4,-0.989 l -0.531,-0.117 c -1.5,-0.327 -2.3,-1.111 -2.3,-2.409 0,-1.51 1.25,-2.5 2.971,-2.5 a 4.686,4.686 0 0 1 2.872,0.93 z"
         transform="translate(-13533.522,-2463.406)" />
      <path
         id="Path_1367"
         data-name="Path 1367"
         d="M 263.836,461.572 H 261.6 v 6.7 H 260 v -6.7 h -2.236 v -1.486 h 6.072 z"
         transform="translate(-13533.82,-2463.411)" />
      <rect
         id="Rectangle_3907"
         data-name="Rectangle 3907"
         width="1.599"
         height="8.1899996"
         transform="translate(-13269.088,-2003.325)"
         x="0"
         y="0" />
      <path
         id="Path_1368"
         data-name="Path 1368"
         d="m 273.709,461.572 h -2.236 v 6.7 h -1.6 v -6.7 h -2.237 v -1.486 h 6.072 z"
         transform="translate(-13534.237,-2463.411)" />
      <path
         id="Path_1369"
         data-name="Path 1369"
         d="m 281.2,465.275 a 3.184,3.184 0 0 1 -6.368,0 v -5.189 h 1.6 v 5.107 a 1.59,1.59 0 1 0 3.176,0 v -5.107 h 1.592 z"
         transform="translate(-13534.542,-2463.411)" />
      <path
         id="Path_1370"
         data-name="Path 1370"
         d="m 289.252,465.275 a 3.184,3.184 0 0 1 -6.368,0 v -5.189 h 1.6 v 5.107 a 1.59,1.59 0 1 0 3.176,0 v -5.107 h 1.594 z"
         transform="translate(-13534.882,-2463.411)" />
      <path
         id="Path_1371"
         data-name="Path 1371"
         d="m 296.461,461.572 h -2.236 v 6.7 h -1.6 v -6.7 h -2.236 v -1.486 h 6.071 z"
         transform="translate(-13535.199,-2463.411)" />
      <path
         id="Path_1372"
         data-name="Path 1372"
         d="m 306.676,460.086 -2.761,8.19 H 302 l -2.762,-8.19 h 1.693 l 2.037,6.447 2.049,-6.447 z"
         transform="translate(-13535.573,-2463.411)" />
      <path
         id="Path_1373"
         data-name="Path 1373"
         d="m 314.8,464.175 c 0,2.545 -1.529,4.23 -3.788,4.23 -2.259,0 -3.789,-1.684 -3.789,-4.23 0,-2.546 1.529,-4.229 3.789,-4.229 2.26,0 3.788,1.684 3.788,4.229 m -5.919,0 c 0,1.679 0.875,2.68 2.131,2.68 1.256,0 2.13,-1 2.13,-2.68 0,-1.68 -0.875,-2.679 -2.13,-2.679 -1.255,0 -2.131,1 -2.131,2.679"
         transform="translate(-13535.911,-2463.406)" />
      <path
         id="Path_1374"
         data-name="Path 1374"
         d="m 323.63,464.175 c 0,2.545 -1.529,4.23 -3.789,4.23 -2.26,0 -3.788,-1.684 -3.788,-4.23 0,-2.546 1.528,-4.229 3.788,-4.229 2.26,0 3.789,1.684 3.789,4.229 m -5.919,0 c 0,1.679 0.874,2.68 2.13,2.68 1.256,0 2.131,-1 2.131,-2.68 0,-1.68 -0.875,-2.679 -2.131,-2.679 -1.256,0 -2.13,1 -2.13,2.679"
         transform="translate(-13536.284,-2463.406)" />
      <path
         id="Path_1375"
         data-name="Path 1375"
         d="m 327.2,465.053 h -0.4 v 3.223 h -1.6 v -8.19 h 3.047 c 1.826,0 2.86,0.947 2.86,2.527 a 2.332,2.332 0 0 1 -2.188,2.393 l 2.253,3.27 h -1.879 z m -0.4,-1.363 h 1.431 c 0.776,0 1.243,-0.351 1.243,-1.077 0,-0.726 -0.479,-1.059 -1.243,-1.059 H 326.8 Z"
         transform="translate(-13536.671,-2463.411)" />
      <path
         id="Path_1376"
         data-name="Path 1376"
         d="m 341.656,460.086 v 8.19 h -1.594 v -3.393 h -3.292 v 3.393 h -1.6 v -8.19 h 1.6 v 3.314 h 3.292 v -3.317 z"
         transform="translate(-13537.093,-2463.411)" />
      <path
         id="Path_1377"
         data-name="Path 1377"
         d="m 348.918,466.819 v 1.457 H 343.5 v -8.19 h 5.4 v 1.456 h -3.806 v 1.872 h 3.606 v 1.457 h -3.607 v 1.948 z"
         transform="translate(-13537.444,-2463.411)" />
      <path
         id="Path_1378"
         data-name="Path 1378"
         d="m 356.007,461.572 h -2.236 v 6.7 h -1.6 v -6.7 h -2.236 v -1.486 h 6.071 z"
         transform="translate(-13537.717,-2463.411)" />
      <path
         id="Path_1379"
         data-name="Path 1379"
         d="m 364.081,466.422 h -3.006 l -0.6,1.854 h -1.658 l 2.825,-8.19 h 1.892 l 2.825,8.19 h -1.688 z m -0.473,-1.457 -1.033,-3.206 -1.028,3.206 z"
         transform="translate(-13538.093,-2463.411)" />
      <path
         id="Path_1380"
         data-name="Path 1380"
         d="m 369.562,465.053 h -0.4 v 3.223 h -1.6 v -8.19 h 3.047 c 1.827,0 2.861,0.947 2.861,2.527 a 2.333,2.333 0 0 1 -2.189,2.393 l 2.254,3.27 h -1.88 z m -0.4,-1.363 h 1.431 c 0.777,0 1.243,-0.351 1.243,-1.077 0,-0.726 -0.479,-1.059 -1.243,-1.059 h -1.431 z"
         transform="translate(-13538.462,-2463.411)" />
      <path
         id="Path_1381"
         data-name="Path 1381"
         d="m 381.522,461.795 -1.377,0.754 a 1.93,1.93 0 0 0 -1.752,-1.053 c -1.226,0 -2.107,1 -2.107,2.68 0.006,1.736 0.928,2.679 2.113,2.679 a 1.973,1.973 0 0 0 1.763,-1.047 l 1.32,0.837 a 3.4,3.4 0 0 1 -3.083,1.761 c -2.241,0 -3.771,-1.668 -3.771,-4.23 0,-2.562 1.529,-4.23 3.771,-4.23 a 3.367,3.367 0 0 1 3.123,1.849"
         transform="translate(-13538.761,-2463.406)" />
      <path
         id="Path_1382"
         data-name="Path 1382"
         d="m 389.437,460.086 v 8.19 h -1.594 v -3.393 h -3.292 v 3.393 h -1.6 v -8.19 h 1.6 v 3.314 h 3.292 v -3.317 z"
         transform="translate(-13539.113,-2463.411)" />
      <rect
         id="Rectangle_3908"
         data-name="Rectangle 3908"
         width="1.6"
         height="8.1899996"
         transform="translate(-13148.188,-2003.325)"
         x="0"
         y="0" />
      <path
         id="Path_1383"
         data-name="Path 1383"
         d="m 399.919,466.819 v 1.457 H 394.5 v -8.19 h 5.4 v 1.456 h -3.8 v 1.872 h 3.6 v 1.457 h -3.6 v 1.948 z"
         transform="translate(-13539.602,-2463.411)" />
      <path
         id="Path_1384"
         data-name="Path 1384"
         d="m 403.157,461.542 v 1.937 h 3.5 v 1.456 h -3.5 v 3.341 h -1.6 v -8.19 h 5.343 v 1.456 z"
         transform="translate(-13539.899,-2463.411)" />
    </g>
  </g>
</svg>
